{
  "accessors": [
    {
      "bufferView": 2,
      "componentType": 5126,
      "count": 276,
      "max": [
        33365.19921875,
        21522.599609375,
        7899.47021484375
      ],
      "min": [
        33051.6015625,
        14015.0,
        2562.06005859375
      ],
      "type": "VEC3"
    },
    {
      "bufferView": 2,
      "byteOffset": 3312,
      "componentType": 5126,
      "count": 276,
      "max": [
        0.999973475933075,
        0.8132452964782715,
        3.313891722882614e-14
      ],
      "min": [
        0.5819211602210999,
        -0.7858989834785461,
        -9.179395999282629e-15
      ],
      "type": "VEC3"
    },
    {
      "bufferView": 1,
      "componentType": 5126,
      "count": 276,
      "max": [
        1153.199951171875,
        311.00299072265625
      ],
      "min": [
        -28.1835994720459,
        100.86799621582031
      ],
      "type": "VEC2"
    },
    {
      "bufferView": 0,
      "componentType": 5125,
      "count": 414,
      "type": "SCALAR"
    },
    {
      "bufferView": 2,
      "byteOffset": 6624,
      "componentType": 5126,
      "count": 16,
      "max": [
        47889.19921875,
        31523.0,
        19485.19921875
      ],
      "min": [
        28640.599609375,
        4016.72998046875,
        17948.0
      ],
      "type": "VEC3"
    },
    {
      "bufferView": 2,
      "byteOffset": 6816,
      "componentType": 5126,
      "count": 16,
      "max": [
        0.341743141412735,
        0.28564396500587463,
        0.9583358764648438
      ],
      "min": [
        -2.7362795850075254e-15,
        -0.28564396500587463,
        0.9397934675216675
      ],
      "type": "VEC3"
    },
    {
      "bufferView": 1,
      "byteOffset": 2208,
      "componentType": 5126,
      "count": 16,
      "max": [
        3.3831400871276855,
        2.021320104598999
      ],
      "min": [
        -3.3831400871276855,
        -3.224940061569214
      ],
      "type": "VEC2"
    },
    {
      "bufferView": 0,
      "byteOffset": 1656,
      "componentType": 5125,
      "count": 30,
      "type": "SCALAR"
    },
    {
      "bufferView": 2,
      "byteOffset": 7008,
      "componentType": 5126,
      "count": 2066,
      "max": [
        77779.703125,
        52482.1015625,
        25149.80078125
      ],
      "min": [
        17998.69921875,
        -16942.400390625,
        1066.800048828125
      ],
      "type": "VEC3"
    },
    {
      "bufferView": 2,
      "byteOffset": 31800,
      "componentType": 5126,
      "count": 2066,
      "max": [
        1.0,
        1.0,
        6.346050795968949e-09
      ],
      "min": [
        -1.0,
        -1.0,
        -3.7153604637296667e-08
      ],
      "type": "VEC3"
    },
    {
      "bufferView": 1,
      "byteOffset": 2336,
      "componentType": 5126,
      "count": 2066,
      "max": [
        868.3400268554688,
        1042.77001953125
      ],
      "min": [
        -1553.510009765625,
        42.0
      ],
      "type": "VEC2"
    },
    {
      "bufferView": 0,
      "byteOffset": 1776,
      "componentType": 5125,
      "count": 3078,
      "type": "SCALAR"
    },
    {
      "bufferView": 2,
      "byteOffset": 56592,
      "componentType": 5126,
      "count": 70,
      "max": [
        73745.0,
        45770.3984375,
        7846.2998046875
      ],
      "min": [
        34049.30078125,
        -10230.7998046875,
        -2.710329960464719e-09
      ],
      "type": "VEC3"
    },
    {
      "bufferView": 2,
      "byteOffset": 57432,
      "componentType": 5126,
      "count": 70,
      "max": [
        1.0,
        0.5877850651741028,
        4.2790705874484747e-13
      ],
      "min": [
        0.8090171217918396,
        -0.5877850651741028,
        6.149571005415258e-15
      ],
      "type": "VEC3"
    },
    {
      "bufferView": 1,
      "byteOffset": 18864,
      "componentType": 5126,
      "count": 70,
      "max": [
        1346.550048828125,
        308.90899658203125
      ],
      "min": [
        352.84100341796875,
        -1.2549299707037553e-12
      ],
      "type": "VEC2"
    },
    {
      "bufferView": 0,
      "byteOffset": 14088,
      "componentType": 5125,
      "count": 174,
      "type": "SCALAR"
    },
    {
      "bufferView": 2,
      "byteOffset": 58272,
      "componentType": 5126,
      "count": 224,
      "max": [
        77685.296875,
        50864.80078125,
        18812.400390625
      ],
      "min": [
        18093.099609375,
        -15325.099609375,
        4777.81005859375
      ],
      "type": "VEC3"
    },
    {
      "bufferView": 2,
      "byteOffset": 60960,
      "componentType": 5126,
      "count": 224,
      "max": [
        1.0,
        1.0,
        4.4573806451397857e-13
      ],
      "min": [
        -1.0,
        -1.0,
        -3.007930208620384e-14
      ],
      "type": "VEC3"
    },
    {
      "bufferView": 1,
      "byteOffset": 19424,
      "componentType": 5126,
      "count": 224,
      "max": [
        609.677001953125,
        740.64501953125
      ],
      "min": [
        -1494.219970703125,
        188.10299682617188
      ],
      "type": "VEC2"
    },
    {
      "bufferView": 0,
      "byteOffset": 14784,
      "componentType": 5125,
      "count": 336,
      "type": "SCALAR"
    },
    {
      "bufferView": 2,
      "byteOffset": 63648,
      "componentType": 5126,
      "count": 225,
      "max": [
        78035.296875,
        52966.1015625,
        26530.900390625
      ],
      "min": [
        17743.099609375,
        -17426.400390625,
        19485.19921875
      ],
      "type": "VEC3"
    },
    {
      "bufferView": 2,
      "byteOffset": 66348,
      "componentType": 5126,
      "count": 225,
      "max": [
        0.8498831391334534,
        0.8090171217918396,
        0.9831864833831787
      ],
      "min": [
        -0.7594591379165649,
        -0.8090171217918396,
        1.555470270815651e-12
      ],
      "type": "VEC3"
    },
    {
      "bufferView": 1,
      "byteOffset": 21216,
      "componentType": 5126,
      "count": 225,
      "max": [
        3.3805699348449707,
        4.36299991607666
      ],
      "min": [
        -3.445349931716919,
        -1.4305100440979004
      ],
      "type": "VEC2"
    },
    {
      "bufferView": 0,
      "byteOffset": 16128,
      "componentType": 5125,
      "count": 363,
      "type": "SCALAR"
    },
    {
      "bufferView": 2,
      "byteOffset": 69048,
      "componentType": 5126,
      "count": 5770,
      "max": [
        75272.796875,
        52966.1015625,
        25806.400390625
      ],
      "min": [
        57385.3984375,
        -17426.400390625,
        -1.9357400404818037e-10
      ],
      "type": "VEC3"
    },
    {
      "bufferView": 2,
      "byteOffset": 138288,
      "componentType": 5126,
      "count": 5770,
      "max": [
        0.8910068869590759,
        0.8886054158210754,
        1.0
      ],
      "min": [
        -0.8910068869590759,
        -0.8886054158210754,
        -1.0
      ],
      "type": "VEC3"
    },
    {
      "bufferView": 1,
      "byteOffset": 23016,
      "componentType": 5126,
      "count": 5770,
      "max": [
        7.503590106964111,
        8.602129936218262
      ],
      "min": [
        -7.503590106964111,
        -1.1680999994277954
      ],
      "type": "VEC2"
    },
    {
      "bufferView": 0,
      "byteOffset": 17580,
      "componentType": 5125,
      "count": 12048,
      "type": "SCALAR"
    },
    {
      "bufferView": 2,
      "byteOffset": 207528,
      "componentType": 5126,
      "count": 6266,
      "max": [
        47889.19921875,
        39352.1015625,
        26530.900390625
      ],
      "min": [
        17743.099609375,
        -3812.3701171875,
        -5.829429994275159e-11
      ],
      "type": "VEC3"
    },
    {
      "bufferView": 2,
      "byteOffset": 282720,
      "componentType": 5126,
      "count": 6266,
      "max": [
        1.0,
        1.0,
        1.0
      ],
      "min": [
        -1.0,
        -1.0,
        -1.0
      ],
      "type": "VEC3"
    },
    {
      "bufferView": 1,
      "byteOffset": 69176,
      "componentType": 5126,
      "count": 6266,
      "max": [
        13.069499969482422,
        14.388099670410156
      ],
      "min": [
        -13.31820011138916,
        -10.825799942016602
      ],
      "type": "VEC2"
    },
    {
      "bufferView": 0,
      "byteOffset": 65772,
      "componentType": 5125,
      "count": 12228,
      "type": "SCALAR"
    },
    {
      "bufferView": 2,
      "byteOffset": 357912,
      "componentType": 5126,
      "count": 7002,
      "max": [
        78035.296875,
        31626.5,
        25806.400390625
      ],
      "min": [
        51161.3984375,
        -12376.2001953125,
        -7.67196972617512e-09
      ],
      "type": "VEC3"
    },
    {
      "bufferView": 2,
      "byteOffset": 441936,
      "componentType": 5126,
      "count": 7002,
      "max": [
        0.9876884818077087,
        0.9876884818077087,
        1.0
      ],
      "min": [
        -0.9876884818077087,
        -0.9876884818077087,
        -1.0
      ],
      "type": "VEC3"
    },
    {
      "bufferView": 1,
      "byteOffset": 119304,
      "componentType": 5126,
      "count": 7002,
      "max": [
        6.048439979553223,
        11.526900291442871
      ],
      "min": [
        -6.0236101150512695,
        -2.006649971008301
      ],
      "type": "VEC2"
    },
    {
      "bufferView": 0,
      "byteOffset": 114684,
      "componentType": 5125,
      "count": 14538,
      "type": "SCALAR"
    },
    {
      "bufferView": 2,
      "byteOffset": 525960,
      "componentType": 5126,
      "count": 6996,
      "max": [
        75084.3984375,
        47915.8984375,
        25806.400390625
      ],
      "min": [
        26307.0,
        -12376.2001953125,
        -3.618729982335367e-09
      ],
      "type": "VEC3"
    },
    {
      "bufferView": 2,
      "byteOffset": 609912,
      "componentType": 5126,
      "count": 6996,
      "max": [
        1.0,
        1.0,
        1.0
      ],
      "min": [
        -1.0,
        -1.0,
        -1.0
      ],
      "type": "VEC3"
    },
    {
      "bufferView": 1,
      "byteOffset": 175320,
      "componentType": 5126,
      "count": 6996,
      "max": [
        6.048439979553223,
        11.526900291442871
      ],
      "min": [
        -6.0236101150512695,
        -2.006649971008301
      ],
      "type": "VEC2"
    },
    {
      "bufferView": 0,
      "byteOffset": 172836,
      "componentType": 5125,
      "count": 14535,
      "type": "SCALAR"
    },
    {
      "bufferView": 2,
      "byteOffset": 693864,
      "componentType": 5126,
      "count": 6902,
      "max": [
        52663.8984375,
        47915.8984375,
        25806.400390625
      ],
      "min": [
        26307.0,
        -12376.2001953125,
        -3.766699840923593e-09
      ],
      "type": "VEC3"
    },
    {
      "bufferView": 2,
      "byteOffset": 776688,
      "componentType": 5126,
      "count": 6902,
      "max": [
        1.0,
        1.0,
        1.0
      ],
      "min": [
        -1.0,
        -1.0,
        -1.0
      ],
      "type": "VEC3"
    },
    {
      "bufferView": 1,
      "byteOffset": 231288,
      "componentType": 5126,
      "count": 6902,
      "max": [
        6.048439979553223,
        11.526900291442871
      ],
      "min": [
        -6.0236101150512695,
        -2.006649971008301
      ],
      "type": "VEC2"
    },
    {
      "bufferView": 0,
      "byteOffset": 230976,
      "componentType": 5125,
      "count": 14373,
      "type": "SCALAR"
    },
    {
      "bufferView": 2,
      "byteOffset": 859512,
      "componentType": 5126,
      "count": 1759,
      "max": [
        78035.296875,
        22544.5,
        25806.400390625
      ],
      "min": [
        68548.8984375,
        12995.2001953125,
        -7.919479958970466e-13
      ],
      "type": "VEC3"
    },
    {
      "bufferView": 2,
      "byteOffset": 880620,
      "componentType": 5126,
      "count": 1759,
      "max": [
        1.0,
        1.0,
        1.0
      ],
      "min": [
        -1.0,
        -1.0,
        -1.0
      ],
      "type": "VEC3"
    },
    {
      "bufferView": 1,
      "byteOffset": 286504,
      "componentType": 5126,
      "count": 1759,
      "max": [
        6.048439979553223,
        11.526900291442871
      ],
      "min": [
        -6.0236101150512695,
        -2.006649971008301
      ],
      "type": "VEC2"
    },
    {
      "bufferView": 0,
      "byteOffset": 288468,
      "componentType": 5125,
      "count": 3630,
      "type": "SCALAR"
    }
  ],
  "asset": {
    "extras": {
      "author": "adamlheet (https://sketchfab.com/adamlheet)",
      "license": "CC-BY-4.0 (http://creativecommons.org/licenses/by/4.0/)",
      "source": "https://sketchfab.com/3d-models/globe-theatre-painted-a17bd220dc4540b380d5431ee72ceed4",
      "title": "Globe Theatre Painted"
    },
    "generator": "Sketchfab-12.68.0",
    "version": "2.0"
  },
  "bufferViews": [
    {
      "buffer": 0,
      "byteLength": 302988,
      "name": "floatBufferViews",
      "target": 34963
    },
    {
      "buffer": 0,
      "byteLength": 300576,
      "byteOffset": 302988,
      "byteStride": 8,
      "name": "floatBufferViews",
      "target": 34962
    },
    {
      "buffer": 0,
      "byteLength": 901728,
      "byteOffset": 603564,
      "byteStride": 12,
      "name": "floatBufferViews",
      "target": 34962
    }
  ],
  "buffers": [
    {
      "byteLength": 1505292,
      "uri": "scene.bin"
    }
  ],
  "images": [
    {
      "uri": "textures/Thatch_baseColor.jpeg"
    },
    {
      "uri": "textures/Wood__Floor_baseColor.jpeg"
    },
    {
      "uri": "textures/wood_siding_baseColor.jpeg"
    }
  ],
  "materials": [
    {
      "doubleSided": true,
      "name": "Color_001",
      "pbrMetallicRoughness": {
        "baseColorFactor": [
          0.886275,
          0.886275,
          0.886275,
          1.0
        ],
        "metallicFactor": 0.0,
        "roughnessFactor": 0.6
      }
    },
    {
      "doubleSided": true,
      "name": "Color_A11",
      "pbrMetallicRoughness": {
        "baseColorFactor": [
          0.3636653735842167,
          0.002836785199836969,
          0.002836785199836969,
          1.0
        ],
        "metallicFactor": 0.0,
        "roughnessFactor": 0.6
      }
    },
    {
      "doubleSided": true,
      "name": "Color_C20",
      "pbrMetallicRoughness": {
        "baseColorFactor": [
          0.4,
          0.356863,
          0.317647,
          1.0
        ],
        "metallicFactor": 0.0,
        "roughnessFactor": 0.6
      }
    },
    {
      "doubleSided": true,
      "name": "Color_H15",
      "pbrMetallicRoughness": {
        "baseColorFactor": [
          0.478431,
          0.6,
          0.6,
          1.0
        ],
        "metallicFactor": 0.0,
        "roughnessFactor": 0.6
      }
    },
    {
      "doubleSided": true,
      "name": "Thatch",
      "pbrMetallicRoughness": {
        "baseColorTexture": {
          "index": 0
        },
        "metallicFactor": 0.0,
        "roughnessFactor": 0.6
      }
    },
    {
      "doubleSided": true,
      "name": "Wood__Floor",
      "pbrMetallicRoughness": {
        "baseColorTexture": {
          "index": 1
        },
        "metallicFactor": 0.0,
        "roughnessFactor": 0.6
      }
    },
    {
      "doubleSided": true,
      "name": "wood_siding",
      "pbrMetallicRoughness": {
        "baseColorTexture": {
          "index": 2
        },
        "metallicFactor": 0.0,
        "roughnessFactor": 0.6
      }
    }
  ],
  "meshes": [
    {
      "name": "Object_0",
      "primitives": [
        {
          "attributes": {
            "NORMAL": 1,
            "POSITION": 0,
            "TEXCOORD_0": 2
          },
          "indices": 3,
          "material": 1,
          "mode": 4
        }
      ]
    },
    {
      "name": "Object_1",
      "primitives": [
        {
          "attributes": {
            "NORMAL": 5,
            "POSITION": 4,
            "TEXCOORD_0": 6
          },
          "indices": 7,
          "material": 6,
          "mode": 4
        }
      ]
    },
    {
      "name": "Object_2",
      "primitives": [
        {
          "attributes": {
            "NORMAL": 9,
            "POSITION": 8,
            "TEXCOORD_0": 10
          },
          "indices": 11,
          "material": 0,
          "mode": 4
        }
      ]
    },
    {
      "name": "Object_3",
      "primitives": [
        {
          "attributes": {
            "NORMAL": 13,
            "POSITION": 12,
            "TEXCOORD_0": 14
          },
          "indices": 15,
          "material": 2,
          "mode": 4
        }
      ]
    },
    {
      "name": "Object_4",
      "primitives": [
        {
          "attributes": {
            "NORMAL": 17,
            "POSITION": 16,
            "TEXCOORD_0": 18
          },
          "indices": 19,
          "material": 3,
          "mode": 4
        }
      ]
    },
    {
      "name": "Object_5",
      "primitives": [
        {
          "attributes": {
            "NORMAL": 21,
            "POSITION": 20,
            "TEXCOORD_0": 22
          },
          "indices": 23,
          "material": 4,
          "mode": 4
        }
      ]
    },
    {
      "name": "Object_6",
      "primitives": [
        {
          "attributes": {
            "NORMAL": 25,
            "POSITION": 24,
            "TEXCOORD_0": 26
          },
          "indices": 27,
          "material": 5,
          "mode": 4
        }
      ]
    },
    {
      "name": "Object_7",
      "primitives": [
        {
          "attributes": {
            "NORMAL": 29,
            "POSITION": 28,
            "TEXCOORD_0": 30
          },
          "indices": 31,
          "material": 5,
          "mode": 4
        }
      ]
    },
    {
      "name": "Object_8",
      "primitives": [
        {
          "attributes": {
            "NORMAL": 33,
            "POSITION": 32,
            "TEXCOORD_0": 34
          },
          "indices": 35,
          "material": 5,
          "mode": 4
        }
      ]
    },
    {
      "name": "Object_9",
      "primitives": [
        {
          "attributes": {
            "NORMAL": 37,
            "POSITION": 36,
            "TEXCOORD_0": 38
          },
          "indices": 39,
          "material": 5,
          "mode": 4
        }
      ]
    },
    {
      "name": "Object_10",
      "primitives": [
        {
          "attributes": {
            "NORMAL": 41,
            "POSITION": 40,
            "TEXCOORD_0": 42
          },
          "indices": 43,
          "material": 5,
          "mode": 4
        }
      ]
    },
    {
      "name": "Object_11",
      "primitives": [
        {
          "attributes": {
            "NORMAL": 45,
            "POSITION": 44,
            "TEXCOORD_0": 46
          },
          "indices": 47,
          "material": 5,
          "mode": 4
        }
      ]
    }
  ],
  "nodes": [
    {
      "children": [
        1
      ],
      "matrix": [
        1.0,
        0.0,
        0.0,
        0.0,
        0.0,
        2.220446049250313e-16,
        -1.0,
        0.0,
        0.0,
        1.0,
        2.220446049250313e-16,
        0.0,
        0.0,
        0.0,
        0.0,
        1.0
      ],
      "name": "Sketchfab_model"
    },
    {
      "children": [
        2,
        3,
        4,
        5,
        6,
        7,
        8,
        9,
        10,
        11,
        12,
        13
      ],
      "name": "Globe Theatre.obj.cleaner"
    },
    {
      "mesh": 0,
      "name": "Object_2"
    },
    {
      "mesh": 1,
      "name": "Object_3"
    },
    {
      "mesh": 2,
      "name": "Object_4"
    },
    {
      "mesh": 3,
      "name": "Object_5"
    },
    {
      "mesh": 4,
      "name": "Object_6"
    },
    {
      "mesh": 5,
      "name": "Object_7"
    },
    {
      "mesh": 6,
      "name": "Object_8"
    },
    {
      "mesh": 7,
      "name": "Object_9"
    },
    {
      "mesh": 8,
      "name": "Object_10"
    },
    {
      "mesh": 9,
      "name": "Object_11"
    },
    {
      "mesh": 10,
      "name": "Object_12"
    },
    {
      "mesh": 11,
      "name": "Object_13"
    }
  ],
  "samplers": [
    {
      "magFilter": 9729,
      "minFilter": 9987,
      "wrapS": 10497,
      "wrapT": 10497
    }
  ],
  "scene": 0,
  "scenes": [
    {
      "name": "Sketchfab_Scene",
      "nodes": [
        0
      ]
    }
  ],
  "textures": [
    {
      "sampler": 0,
      "source": 0
    },
    {
      "sampler": 0,
      "source": 1
    },
    {
      "sampler": 0,
      "source": 2
    }
  ]
}
